<?xml version="1.0" encoding="UTF-8"?>
<!DOCTYPE svg PUBLIC "-//W3C//DTD SVG 1.1//EN" "http://www.w3.org/Graphics/SVG/1.1/DTD/svg11.dtd">
<!-- Creator: CorelDRAW X7 -->
<svg xmlns="http://www.w3.org/2000/svg" xml:space="preserve" width="293px" height="103px" version="1.1" shape-rendering="geometricPrecision" text-rendering="geometricPrecision" image-rendering="optimizeQuality" fill-rule="evenodd" clip-rule="evenodd"
viewBox="0 0 193281 67733"
 xmlns:xlink="http://www.w3.org/1999/xlink">
 <g id="Layer_x0020_1">
  <metadata id="CorelCorpID_0Corel-Layer"/>
  <g id="_574519579008">
   <path fill="#E1642B" d="M134145 64673c3059,-832 2071,-964 2161,-5373 272,-13270 -1071,-44715 248,-53822 10685,-204 22748,-435 33366,-42 23622,872 26034,28659 11950,37121 -7589,4561 -13138,3466 -21288,3488 -4741,13 -4533,-912 -5915,1884 6731,4048 25691,-51 30551,-4093 13927,-11585 10631,-40551 -16318,-41173 -8464,-195 -27984,-845 -35450,455 0,8119 -967,58310 695,61555z"/>
   <path fill="#E1642B" d="M138887 64765l2765 0 41 -53847c8502,-456 17953,-214 26186,-133 20660,205 21294,20968 10059,27860 -3593,2203 -6467,2130 -11087,2136l-10833 386c-207,59 -543,245 -703,300 -155,52 -455,199 -662,334 1447,2615 -5,1664 4908,1775 6194,139 14967,318 19757,-2547 5663,-3387 10614,-11652 7823,-20530 -5313,-16900 -27552,-12419 -48114,-12419l-140 56685z"/>
   <path fill="#E1642B" d="M145378 64745c3031,-1194 1734,-7411 1718,-10685l41 -37883c10508,0 30159,-3743 32396,7737 2266,11629 -9199,11527 -16816,11402 -8288,-136 -6562,86 -8090,1380 1778,1531 -617,369 2158,1145 955,267 1817,283 2809,331 4333,214 13078,181 16503,-1404 4489,-2077 8156,-8584 5471,-15826 -3971,-10709 -24047,-7588 -36928,-7420 -736,6509 -1436,48260 738,51223z"/>
   <path fill="#E1642B" d="M3960 54651c4075,7823 20749,9110 29284,5738 9271,-3664 13522,-17480 5201,-26030 -9137,-9389 -24986,938 -24568,-12934 434,-14433 22330,-3821 25914,-6174 -5246,-6974 -24489,-5763 -27724,1527 -2522,5687 -287,11679 3504,13953 5166,3098 10679,536 16684,2704 9383,3388 10792,17675 1597,23474 -11781,7431 -24761,-2651 -29892,-2258z"/>
   <path fill="#E1642B" d="M61581 52013c2521,3780 9637,4610 14361,4638 6132,35 11522,-1582 13527,-6429 2070,-5005 -24,-11459 -3380,-13482 -4551,-2744 -11249,-678 -16740,-2662 -10497,-3792 -10522,-18689 -1399,-23777 11974,-6679 24731,3597 29420,2004 -4069,-6362 -19499,-8914 -28672,-5324 -9018,3528 -14354,16063 -6609,25171 8951,10524 24508,428 25320,12737 1039,15742 -22503,5604 -25828,7124z"/>
   <path fill="#E2672F" d="M8598 52013c4315,6296 24050,6793 27814,-1767 2384,-5421 -50,-11099 -3552,-13404 -4872,-3206 -10926,-692 -16698,-2714 -9690,-3394 -9929,-18990 -1318,-23810 12317,-6896 24932,3226 29604,2179 -4582,-7810 -21968,-8145 -28930,-5593 -9738,3570 -13355,17061 -6523,25254 8227,9865 24692,891 25454,12694 1039,16079 -22098,5298 -25851,7161z"/>
   <path fill="#E1642B" d="M56905 55418c4907,6209 20272,8673 29384,4907 8835,-3652 13273,-16007 5609,-25282 -8959,-10844 -25644,849 -25040,-13615 567,-13537 21794,-5874 22921,-5731l2931 -446c-1957,-2271 -3906,-2889 -7055,-3599 -7531,-1697 -18528,-1789 -21057,6550 -5186,17101 16520,13583 20732,15239 9001,3537 10216,18567 994,23838 -11976,6846 -25572,-3782 -29419,-1861z"/>
   <path fill="#E1642B" d="M19475 22399c1345,-6837 10389,-1587 16236,-3463 -3831,-4016 -13406,-3009 -18326,-1048 -3255,14570 8925,5805 19001,11393 6146,3409 11325,12152 8257,22121 -7855,25530 -44615,6634 -44643,6629 1105,3877 3415,4905 9712,7136 31688,11226 47760,-17028 33611,-33631 -8136,-9548 -17001,-6304 -21317,-7447 -3261,-864 -1098,10 -2531,-1690z"/>
   <path fill="#E1642B" d="M70451 25921c9803,3046 15084,-1500 22876,6666 13950,14620 -570,40317 -30012,29993 -8377,-2938 -5059,-5197 -10357,-3916 2007,6923 33911,16319 45229,-1771 6385,-10207 3434,-31872 -18167,-32554 -9424,-298 -6199,-299 -7620,-1940 2073,-7058 8811,-2015 16225,-2787 -1587,-2572 -254,-2195 -4802,-3073 -1770,-342 -6053,-450 -7873,-253 -7079,768 -6846,3988 -5499,9635z"/>
   <path fill="#E1642B" d="M81978 47133c-7516,3935 -11805,-1500 -16115,1817 4836,3479 13732,2868 18184,91 2543,-13674 -11093,-5551 -20076,-11608 -20371,-13738 -1934,-45640 29547,-31566 1296,580 10927,7423 6972,1326 -3316,-5111 -34896,-15408 -45162,4850 -5550,10952 -950,28065 14599,30642 6969,1155 10881,-1812 12051,4448z"/>
   <path fill="#E1642B" d="M28375 47343c-5810,2806 -9516,-177 -15526,849 2596,5507 14920,2590 18265,1015 2635,-13798 -10080,-5848 -19675,-11346 -20020,-11471 -4412,-46410 28189,-32272 2352,1020 9707,6195 8048,2194 -2679,-6459 -36043,-15299 -45431,4247 -4500,9369 -2290,27631 14609,30605 6319,1113 13032,-1439 11521,4708z"/>
   <path fill="#E2672F" d="M151505 64767c2872,-3869 616,-35407 1274,-43122 10491,-101 21163,-1979 21449,3814 318,6448 -6385,4330 -14653,4409 -4812,45 -3457,-830 -4926,1722 203,142 516,106 633,391 438,1073 15242,1477 18342,-377 16,-10 5562,-1556 2925,-8480 -2511,-6595 -20178,-4577 -26378,-4102 -1057,5610 -395,17481 -395,23801 0,4441 -2033,20421 1729,21944z"/>
   <path fill="#E2672F" d="M120931 2762c-4022,810 -2915,610 -2824,6301 158,9892 -733,52654 720,55611 3100,-791 2144,-945 2170,-5423l-66 -56489z"/>
   <path fill="#E2672F" d="M112711 64609c4283,-779 2777,1089 2772,-13617l89 -45009c-683,-5148 835,-1578 -1852,-3247 -1842,3360 -1010,10676 -1009,14557l0 47316z"/>
   <polygon fill="#E16228" points="107282,64745 110010,64745 110010,2699 107274,2699 "/>
   <polygon fill="#E16228" points="123635,64745 126349,64745 126349,2699 123635,2699 "/>
  </g>
 </g>
</svg>
