<svg id="Layer_1" data-name="Layer 1" xmlns="http://www.w3.org/2000/svg" viewBox="0 0 432.86 177.82"><defs><style>.cls-1{fill:#fff;}</style></defs><title>Banner</title><path class="cls-1" d="M243.45,643.82,224.14,672l-33.8-.14v76L162.72,779V671.84L120,672l28.16-28.16Z" transform="translate(-41.01 -601.18)"/><polygon class="cls-1" points="114.51 139.66 114.51 177.82 38.17 101.48 25.45 114.21 25.45 139.66 0 139.66 0 37.87 25.45 37.87 25.45 76.04 82.83 18.66 65.65 0 101.79 0 101.79 37.87 57.25 82.4 114.51 139.66"/><path class="cls-1" d="M221.28,706.77H212l-6-5.68c-1-1-1.81-1.72-2.36-2.25s-1-1-1.32-1.36c0,.49,0,1,.06,1.53s0,1,0,1.57v6.19H196.3V685.18h6.15v5c0,.66,0,1.32,0,2s0,1.24-.08,1.8l1.43-1.43c.56-.57,1.3-1.27,2.21-2.08l5.71-5.27h8.88l-7.58,6.2-1.73,1.42c-.5.41-.95.76-1.35,1.07s-.75.57-1.08.8-.64.46-1,.68c.57.43,1.26,1,2.07,1.61s1.86,1.54,3.14,2.68Z" transform="translate(-41.01 -601.18)"/><path class="cls-1" d="M231.67,706.77l3.7-5.55h6.83a16.23,16.23,0,0,1,1.67.07q-.42-.59-1-1.47c-.37-.59-.72-1.15-1-1.66l-3.55-5.71L229,706.77h-7.25l12.7-19.52a7.09,7.09,0,0,1,1.57-1.68,4.25,4.25,0,0,1,4.72-.05,6.39,6.39,0,0,1,1.58,1.73l12.38,19.52Z" transform="translate(-41.01 -601.18)"/><path class="cls-1" d="M275.25,693.8a8.9,8.9,0,0,1,5.54,1.47,5.28,5.28,0,0,1,1.89,4.44,8.73,8.73,0,0,1-.47,3,5.27,5.27,0,0,1-1.51,2.22,7,7,0,0,1-2.65,1.39,13.65,13.65,0,0,1-3.86.48H255.74l3.94-5.55h15a2.72,2.72,0,0,0,1.6-.37,1.41,1.41,0,0,0,.5-1.21,1.37,1.37,0,0,0-.5-1.19,2.8,2.8,0,0,0-1.6-.36H263.88a10.81,10.81,0,0,1-3.31-.45,6.4,6.4,0,0,1-2.31-1.26,4.86,4.86,0,0,1-1.36-2,6.86,6.86,0,0,1-.45-2.53,7.62,7.62,0,0,1,.49-2.76,5.4,5.4,0,0,1,1.51-2.12,7.14,7.14,0,0,1,2.64-1.35,13.58,13.58,0,0,1,3.86-.49h17.2l-3.94,5.62H264.48a3.15,3.15,0,0,0-1.59.32,1.28,1.28,0,0,0-.52,1.16,1.31,1.31,0,0,0,.52,1.18,2.94,2.94,0,0,0,1.59.34Z" transform="translate(-41.01 -601.18)"/><path class="cls-1" d="M311.55,693.28a8.07,8.07,0,0,1-.65,3.28,6.77,6.77,0,0,1-1.91,2.5,9,9,0,0,1-3.07,1.61,13.29,13.29,0,0,1-4.11.58H291.45v5.52h-6.1v-11h17a3.3,3.3,0,0,0,2.21-.68,2.27,2.27,0,0,0,.78-1.81,2.23,2.23,0,0,0-.78-1.79,3.35,3.35,0,0,0-2.21-.66h-17l4-5.62h12.44a13,13,0,0,1,4.11.6,8.93,8.93,0,0,1,3.05,1.66,7.11,7.11,0,0,1,1.9,2.55A8.19,8.19,0,0,1,311.55,693.28Z" transform="translate(-41.01 -601.18)"/><path class="cls-1" d="M337.66,701.22l-3.94,5.55H314.66V685.18H337.6l-4,5.62H320.81v2.58h15.7L333,698.29H320.81v2.93Z" transform="translate(-41.01 -601.18)"/><path class="cls-1" d="M367.86,706.77h-8.2l-4.41-5.71h-9.42v5.71H339.7v-11h17.23a4.26,4.26,0,0,0,2.4-.65,2,2,0,0,0,1-1.77,2.17,2.17,0,0,0-.89-1.89,4.24,4.24,0,0,0-2.49-.63H339.7l4-5.62h12.73a19.35,19.35,0,0,1,3.49.34,10.2,10.2,0,0,1,3.29,1.21,7.34,7.34,0,0,1,2.44,2.36,6.9,6.9,0,0,1,1,3.81,7.85,7.85,0,0,1-.35,2.39,7,7,0,0,1-1,2,6.42,6.42,0,0,1-1.63,1.53,6.3,6.3,0,0,1-2.18.89,14.56,14.56,0,0,1,1.13,1.06l1.66,1.78Z" transform="translate(-41.01 -601.18)"/><path class="cls-1" d="M394.65,685.18l-4,5.62h-7.07v16h-6.13v-16h-9.3l4-5.62Z" transform="translate(-41.01 -601.18)"/><path class="cls-1" d="M419.52,701.22l-3.94,5.55H396.52V685.18h22.94l-4,5.62H402.67v2.58h15.69l-3.52,4.91H402.67v2.93Z" transform="translate(-41.01 -601.18)"/><path class="cls-1" d="M446.81,701.22l-3.93,5.55h-9.95a13.21,13.21,0,0,1-4.77-.84,11.3,11.3,0,0,1-3.77-2.3,10.58,10.58,0,0,1-3.39-7.86,10.17,10.17,0,0,1,.9-4.31,10,10,0,0,1,2.49-3.35,11,11,0,0,1,3.77-2.17,14.63,14.63,0,0,1,4.77-.76h13.88l-3.93,5.62h-9.95a6.67,6.67,0,0,0-2.31.39,5.7,5.7,0,0,0-1.84,1.08,5.25,5.25,0,0,0-1.22,5.9,4.55,4.55,0,0,0,1.21,1.63,5.34,5.34,0,0,0,1.85,1.05,6.91,6.91,0,0,0,2.31.37Z" transform="translate(-41.01 -601.18)"/><path class="cls-1" d="M473,706.77h-6.09v-8.32H455.1v8.32H449V685.18h6.15v7.65h11.79v-7.65H473Z" transform="translate(-41.01 -601.18)"/><path class="cls-1" d="M284.75,725.59h2.8a15.25,15.25,0,0,1,1.58-4.36,6.6,6.6,0,0,1,2.32-2.26,5.41,5.41,0,0,1,2.7-.82,1.71,1.71,0,0,1,1.07.28.82.82,0,0,1,.37.67.74.74,0,0,1-.25.58.88.88,0,0,1-.64.24,9.52,9.52,0,0,1-1.55-.25,4.57,4.57,0,0,0-.88-.12,1.73,1.73,0,0,0-1.4,1,8.26,8.26,0,0,0-1,2.58l-.59,2.5h3.11l-.19.83h-3.14l-1.84,7.48a10.33,10.33,0,0,1-2.74,5.17,5.86,5.86,0,0,1-4.08,1.75,1.87,1.87,0,0,1-1.12-.28.88.88,0,0,1-.38-.71.71.71,0,0,1,.26-.58,1.15,1.15,0,0,1,.76-.22,6.5,6.5,0,0,1,.73.06,12.26,12.26,0,0,0,1.57.1,2.26,2.26,0,0,0,1.68-.54A6.5,6.5,0,0,0,285,736l2.38-9.56h-2.8Z" transform="translate(-41.01 -601.18)"/><path class="cls-1" d="M297.84,724.83a2.39,2.39,0,0,1,1.91.91,3.85,3.85,0,0,1,.76,2.54,6.84,6.84,0,0,1-1.83,4.67,5.21,5.21,0,0,1-3.87,2.07,2.63,2.63,0,0,1-2-.82A3.14,3.14,0,0,1,292,732a7.92,7.92,0,0,1,1.4-4.54A5.2,5.2,0,0,1,297.84,724.83Zm-1,.88c-.66,0-1.3.47-1.93,1.42a7.14,7.14,0,0,0-.93,3.93,4.26,4.26,0,0,0,.58,2.4,1.28,1.28,0,0,0,1.12.65,2.22,2.22,0,0,0,1.79-1.22,7,7,0,0,0,1-3.93,4.84,4.84,0,0,0-.48-2.5A1.39,1.39,0,0,0,296.84,725.71Z" transform="translate(-41.01 -601.18)"/><path class="cls-1" d="M303.79,734.68H302l.83-3.15c.39-1.55.74-3,1-4.41a4.17,4.17,0,0,0,.1-.64c0-.19-.08-.28-.25-.28a1.16,1.16,0,0,0-.54.24,11.21,11.21,0,0,0-1.32,1.19l-.36-.41a8.72,8.72,0,0,1,2.25-1.81,4,4,0,0,1,1.71-.61.54.54,0,0,1,.33.1.3.3,0,0,1,.13.26,4.85,4.85,0,0,1-.16.81l-.51,2.11a14.92,14.92,0,0,1,2.68-3.2,2,2,0,0,1,1.2-.64.84.84,0,0,1,.59.23.74.74,0,0,1,0,1.07,3.34,3.34,0,0,1-1.14.53,4.88,4.88,0,0,0-1.41.7A6.7,6.7,0,0,0,306,728a6.34,6.34,0,0,0-.91,1.47,22.59,22.59,0,0,0-.79,2.91Z" transform="translate(-41.01 -601.18)"/><path class="cls-1" d="M322.08,724.63l.78-.17-.88,3c-.35,1.18-.69,2.54-1,4.08a11.09,11.09,0,0,0-.26,1.61c0,.25.1.37.3.37a1.41,1.41,0,0,0,.6-.25,8,8,0,0,0,1.39-1.08l.37.46c-.89.81-1.46,1.3-1.71,1.48a6.66,6.66,0,0,1-1.43.76,2.42,2.42,0,0,1-.86.16.62.62,0,0,1-.46-.14.53.53,0,0,1-.15-.41,1.77,1.77,0,0,1,.09-.48l.47-1.59a10,10,0,0,1-2.4,2.07,3,3,0,0,1-1.57.54,1.24,1.24,0,0,1-1.05-.48,2.76,2.76,0,0,1-.49-1.69,7,7,0,0,1,.66-2.76,10.49,10.49,0,0,1,1.78-2.77,7.48,7.48,0,0,1,2.34-1.83A5.92,5.92,0,0,1,321,725a6.56,6.56,0,0,1,.76,0Zm-1.45,1.79a5.22,5.22,0,0,0-1.07-.13,3.08,3.08,0,0,0-1.84.58,5.13,5.13,0,0,0-1.45,2.09,7.27,7.27,0,0,0-.68,3,1.89,1.89,0,0,0,.27,1.15.84.84,0,0,0,.7.35,2.66,2.66,0,0,0,1.74-.87,5.17,5.17,0,0,0,1.36-2.51Z" transform="translate(-41.01 -601.18)"/><path class="cls-1" d="M329.84,725.59h2.8a15.25,15.25,0,0,1,1.58-4.36,6.69,6.69,0,0,1,2.32-2.26,5.47,5.47,0,0,1,2.7-.82,1.72,1.72,0,0,1,1.08.28.83.83,0,0,1,.36.67.77.77,0,0,1-.24.58.9.9,0,0,1-.65.24,9.69,9.69,0,0,1-1.55-.25,4.48,4.48,0,0,0-.88-.12,1.73,1.73,0,0,0-1.4,1,8.27,8.27,0,0,0-1,2.58l-.59,2.5h3.1l-.19.83h-3.14l-1.84,7.48a10.4,10.4,0,0,1-2.73,5.17,5.9,5.9,0,0,1-4.09,1.75,1.82,1.82,0,0,1-1.11-.28.87.87,0,0,1-.39-.71.69.69,0,0,1,.27-.58A1.12,1.12,0,0,1,325,739a6.33,6.33,0,0,1,.73.06,12.38,12.38,0,0,0,1.57.1,2.29,2.29,0,0,0,1.69-.54,6.69,6.69,0,0,0,1.05-2.67l2.38-9.56h-2.8Z" transform="translate(-41.01 -601.18)"/><path class="cls-1" d="M345,725.13h1.67l-1.11,4.1a33.9,33.9,0,0,0-1,4.06.5.5,0,0,0,.11.34.29.29,0,0,0,.23.12.9.9,0,0,0,.47-.18,12.91,12.91,0,0,0,1.46-1.36l.39.43c-1.57,1.64-2.73,2.45-3.47,2.45a.84.84,0,0,1-.64-.28,1.22,1.22,0,0,1-.26-.82,7,7,0,0,1,.25-1.63,10.16,10.16,0,0,1-2.57,2.1,3.64,3.64,0,0,1-1.77.6.8.8,0,0,1-.64-.27,1.28,1.28,0,0,1-.24-.86,5.07,5.07,0,0,1,.11-1c.1-.5.36-1.49.77-3a21.82,21.82,0,0,0,.79-3.4c0-.21-.08-.32-.24-.32a1.25,1.25,0,0,0-.57.21,9.59,9.59,0,0,0-1.25,1l-.51-.41a13.52,13.52,0,0,1,2.4-1.84,3,3,0,0,1,1.33-.44.58.58,0,0,1,.45.2,1,1,0,0,1,.18.64,21.87,21.87,0,0,1-.85,4,26.27,26.27,0,0,0-.75,3.25.63.63,0,0,0,.16.42.47.47,0,0,0,.35.18,3.39,3.39,0,0,0,1.86-1.08,5.17,5.17,0,0,0,1.58-2.47Z" transform="translate(-41.01 -601.18)"/><path class="cls-1" d="M351.44,723l1.86-.71-.84,3.28h2.42l-.18.83h-2.43l-1,3.93a10.89,10.89,0,0,0-.49,2.46.62.62,0,0,0,.13.45.48.48,0,0,0,.37.15,2.62,2.62,0,0,0,1.12-.44,13.9,13.9,0,0,0,1.87-1.3l.45.54a29.63,29.63,0,0,1-3.44,2.37,3.29,3.29,0,0,1-1.39.43.82.82,0,0,1-.69-.32,1.71,1.71,0,0,1-.25-1,11.52,11.52,0,0,1,.45-2.58l1.19-4.66h-1.9l.21-.83h1.9Z" transform="translate(-41.01 -601.18)"/><path class="cls-1" d="M363.75,725.13h1.67l-1.1,4.1a31.77,31.77,0,0,0-1,4.06.49.49,0,0,0,.1.34.31.31,0,0,0,.24.12.87.87,0,0,0,.46-.18,13.62,13.62,0,0,0,1.47-1.36l.39.43c-1.57,1.64-2.73,2.45-3.47,2.45a.83.83,0,0,1-.64-.28,1.18,1.18,0,0,1-.27-.82,7.14,7.14,0,0,1,.26-1.63,10.21,10.21,0,0,1-2.58,2.1,3.64,3.64,0,0,1-1.77.6.81.81,0,0,1-.64-.27,1.28,1.28,0,0,1-.23-.86,5,5,0,0,1,.1-1c.1-.5.36-1.49.77-3a20.6,20.6,0,0,0,.79-3.4c0-.21-.08-.32-.23-.32a1.28,1.28,0,0,0-.58.21,10.49,10.49,0,0,0-1.24,1l-.52-.41a13.89,13.89,0,0,1,2.4-1.84,3,3,0,0,1,1.33-.44.6.6,0,0,1,.46.2,1,1,0,0,1,.17.64,22.42,22.42,0,0,1-.84,4,26.27,26.27,0,0,0-.75,3.25.58.58,0,0,0,.16.42.45.45,0,0,0,.34.18,3.39,3.39,0,0,0,1.86-1.08,5,5,0,0,0,1.58-2.47Z" transform="translate(-41.01 -601.18)"/><path class="cls-1" d="M369,734.68h-1.75l.83-3.15c.39-1.55.74-3,1-4.41a4.17,4.17,0,0,0,.1-.64c0-.19-.08-.28-.25-.28a1.16,1.16,0,0,0-.54.24,11.21,11.21,0,0,0-1.32,1.19l-.36-.41a8.86,8.86,0,0,1,2.24-1.81,4,4,0,0,1,1.72-.61.54.54,0,0,1,.33.1.3.3,0,0,1,.13.26,4.85,4.85,0,0,1-.16.81l-.51,2.11a14.92,14.92,0,0,1,2.68-3.2,2,2,0,0,1,1.2-.64.8.8,0,0,1,.58.23.71.71,0,0,1,.24.53.74.74,0,0,1-.23.54,3.34,3.34,0,0,1-1.14.53,4.88,4.88,0,0,0-1.41.7,7,7,0,0,0-1.2,1.26,6.61,6.61,0,0,0-.9,1.47,22.59,22.59,0,0,0-.79,2.91Z" transform="translate(-41.01 -601.18)"/><path class="cls-1" d="M374.44,727.55l-.51-.4a9.39,9.39,0,0,1,2.13-1.84,3.58,3.58,0,0,1,1.65-.54.86.86,0,0,1,.57.16.56.56,0,0,1,.2.45,21.26,21.26,0,0,1-.76,2.88,29.46,29.46,0,0,0-1.24,5,.46.46,0,0,0,.08.27.23.23,0,0,0,.18.11c.25,0,.89-.48,1.92-1.45l.46.45a15.67,15.67,0,0,1-2.34,1.93,2.68,2.68,0,0,1-1.21.42.84.84,0,0,1-.65-.26,1,1,0,0,1-.24-.71,34.67,34.67,0,0,1,1.76-7.16,1.84,1.84,0,0,0,.08-.48q0-.24-.21-.24a1.1,1.1,0,0,0-.54.19A12.12,12.12,0,0,0,374.44,727.55Zm4.61-7.76a.81.81,0,0,1,.6.24.85.85,0,0,1,.23.61,1.29,1.29,0,0,1-.36.91,1,1,0,0,1-.8.39.81.81,0,0,1-.59-.24.94.94,0,0,1-.23-.65,1.24,1.24,0,0,1,.34-.89A1.06,1.06,0,0,1,379.05,719.79Z" transform="translate(-41.01 -601.18)"/><path class="cls-1" d="M385,724.83a2.76,2.76,0,0,1,1.61.4,1.15,1.15,0,0,1,.57.93.74.74,0,0,1-.24.55.8.8,0,0,1-.58.24.71.71,0,0,1-.39-.1,2.1,2.1,0,0,1-.47-.5,1.52,1.52,0,0,0-1.14-.76,1.16,1.16,0,0,0-.85.37,1.25,1.25,0,0,0-.36.92,1.94,1.94,0,0,0,.23.93,8.43,8.43,0,0,0,1.18,1.45,4,4,0,0,1,1.3,2.63,2.83,2.83,0,0,1-1.05,2.17,4,4,0,0,1-2.72.93,3.16,3.16,0,0,1-2.07-.57,1.75,1.75,0,0,1-.68-1.4,1,1,0,0,1,.25-.68.87.87,0,0,1,.64-.27.78.78,0,0,1,.56.22.64.64,0,0,1,.23.51c0,.07,0,.18,0,.3a2.54,2.54,0,0,0,0,.26.81.81,0,0,0,.33.65,1.28,1.28,0,0,0,.86.27,2.75,2.75,0,0,0,1.11-.21,1.66,1.66,0,0,0,.75-.66,1.64,1.64,0,0,0,.27-.87,1.7,1.7,0,0,0-.25-.84,11.2,11.2,0,0,0-1.14-1.4,4,4,0,0,1-1.21-2.61,2.63,2.63,0,0,1,.92-2A3.3,3.3,0,0,1,385,724.83Z" transform="translate(-41.01 -601.18)"/><path class="cls-1" d="M390.78,723l1.86-.71-.84,3.28h2.42l-.18.83h-2.43l-1,3.93a10.89,10.89,0,0,0-.49,2.46.62.62,0,0,0,.13.45.48.48,0,0,0,.37.15,2.62,2.62,0,0,0,1.12-.44,13.9,13.9,0,0,0,1.87-1.3l.45.54a29.63,29.63,0,0,1-3.44,2.37,3.29,3.29,0,0,1-1.39.43.82.82,0,0,1-.69-.32,1.71,1.71,0,0,1-.25-1,11.52,11.52,0,0,1,.45-2.58l1.19-4.66H388l.21-.83h1.9Z" transform="translate(-41.01 -601.18)"/><path class="cls-1" d="M395.55,727.55l-.52-.4a9.41,9.41,0,0,1,2.14-1.84,3.52,3.52,0,0,1,1.64-.54.91.91,0,0,1,.58.16.56.56,0,0,1,.2.45,23.17,23.17,0,0,1-.76,2.88,28.43,28.43,0,0,0-1.24,5,.46.46,0,0,0,.08.27.2.2,0,0,0,.18.11c.25,0,.89-.48,1.92-1.45l.45.45a15.67,15.67,0,0,1-2.34,1.93,2.6,2.6,0,0,1-1.21.42.86.86,0,0,1-.65-.26,1,1,0,0,1-.24-.71,35.39,35.39,0,0,1,1.76-7.16,1.5,1.5,0,0,0,.08-.48q0-.24-.21-.24a1.1,1.1,0,0,0-.53.19A12.12,12.12,0,0,0,395.55,727.55Zm4.6-7.76a.78.78,0,0,1,.6.24.82.82,0,0,1,.24.61,1.29,1.29,0,0,1-.36.91,1.08,1.08,0,0,1-.8.39.79.79,0,0,1-.59-.24.89.89,0,0,1-.23-.65,1.24,1.24,0,0,1,.34-.89A1,1,0,0,1,400.15,719.79Z" transform="translate(-41.01 -601.18)"/><path class="cls-1" d="M407.36,732.14l.25.68Q404.82,735,402.9,735a1.63,1.63,0,0,1-1.49-.73,3.41,3.41,0,0,1-.46-1.84,8.38,8.38,0,0,1,1-3.8,8.09,8.09,0,0,1,2.39-3,4.07,4.07,0,0,1,2.48-.81,2.16,2.16,0,0,1,1.31.33.94.94,0,0,1,.45.79.78.78,0,0,1-.24.59.85.85,0,0,1-.65.23,2.24,2.24,0,0,1-1.06-.37,2.24,2.24,0,0,0-1.11-.4,1.69,1.69,0,0,0-1.14.52,5.13,5.13,0,0,0-1.09,2,9.27,9.27,0,0,0-.51,3,3,3,0,0,0,.43,1.73,1,1,0,0,0,.89.46A5.5,5.5,0,0,0,407.36,732.14Z" transform="translate(-41.01 -601.18)"/><path class="cls-1" d="M414.53,727.73l-.45-.47a8,8,0,0,1,2.12-1.88,3.75,3.75,0,0,1,1.83-.61.67.67,0,0,1,.46.15.53.53,0,0,1,.17.42,3.42,3.42,0,0,1-.08.7c-.05.24-.21.8-.47,1.69a19.5,19.5,0,0,1,2.45-2.21,3.74,3.74,0,0,1,2-.72,1.21,1.21,0,0,1,1,.57,2.9,2.9,0,0,1,.41,1.7,9.33,9.33,0,0,1-1.77,5.39q-1.77,2.55-3.91,2.55a3.5,3.5,0,0,1-1.69-.46l-1,3.87a2.49,2.49,0,0,0-.09.58.67.67,0,0,0,.33.62,6.64,6.64,0,0,0,2.12.48l-.15.58q-1.89-.15-3-.15t-2.88.15l.15-.58a2.17,2.17,0,0,0,1.3-.5,3,3,0,0,0,.65-1.41l2.12-8.9a26.51,26.51,0,0,0,.59-2.76c0-.21-.09-.31-.29-.31S415.5,726.73,414.53,727.73Zm2.38,5.53a2.69,2.69,0,0,0,1.89.93c.94,0,1.76-.73,2.47-2.19a9.89,9.89,0,0,0,1.06-4.28,1.5,1.5,0,0,0-.3-1,1,1,0,0,0-.8-.35,2.19,2.19,0,0,0-1.27.55,8.21,8.21,0,0,0-1.66,1.7,7.1,7.1,0,0,0-.77,2.11Z" transform="translate(-41.01 -601.18)"/><path class="cls-1" d="M427.08,734.68h-1.74l.82-3.15c.4-1.55.74-3,1-4.41a4.81,4.81,0,0,0,.11-.64c0-.19-.09-.28-.26-.28a1.16,1.16,0,0,0-.54.24,11.41,11.41,0,0,0-1.31,1.19l-.37-.41a8.72,8.72,0,0,1,2.25-1.81,4,4,0,0,1,1.71-.61.6.6,0,0,1,.34.1.32.32,0,0,1,.12.26,5.58,5.58,0,0,1-.15.81l-.51,2.11a14.88,14.88,0,0,1,2.67-3.2,2,2,0,0,1,1.2-.64.82.82,0,0,1,.59.23.74.74,0,0,1,0,1.07,3.34,3.34,0,0,1-1.14.53,5.15,5.15,0,0,0-1.41.7,8.56,8.56,0,0,0-2.1,2.73,24.49,24.49,0,0,0-.79,2.91Z" transform="translate(-41.01 -601.18)"/><path class="cls-1" d="M438.25,731.74l.39.52q-2.88,2.73-4.92,2.73a1.5,1.5,0,0,1-1.27-.57,2.87,2.87,0,0,1-.44-1.8,9.41,9.41,0,0,1,1.52-5c1.14-1.88,2.5-2.83,4.09-2.83a1.77,1.77,0,0,1,1.27.42,1.51,1.51,0,0,1,.44,1.14,2.56,2.56,0,0,1-.53,1.5,6.14,6.14,0,0,1-1.88,1.54c-.46.26-1.43.72-2.91,1.39a7.45,7.45,0,0,0-.11,1.21,1.88,1.88,0,0,0,.27,1.16.92.92,0,0,0,.77.33,2.48,2.48,0,0,0,1.05-.27A14.64,14.64,0,0,0,438.25,731.74Zm-4.1-1.7a9.4,9.4,0,0,0,2.84-1.81,2,2,0,0,0,.64-1.35,1.17,1.17,0,0,0-.26-.8.89.89,0,0,0-.69-.3,1.36,1.36,0,0,0-.84.32,3.24,3.24,0,0,0-.93,1.32A11.85,11.85,0,0,0,434.15,730Z" transform="translate(-41.01 -601.18)"/><path class="cls-1" d="M445.41,724.83a2.74,2.74,0,0,1,1.61.4,1.15,1.15,0,0,1,.57.93.74.74,0,0,1-.24.55.78.78,0,0,1-.58.24.71.71,0,0,1-.39-.1,2.36,2.36,0,0,1-.46-.5,1.56,1.56,0,0,0-1.14-.76,1.16,1.16,0,0,0-.85.37,1.22,1.22,0,0,0-.37.92,2.06,2.06,0,0,0,.23.93,8.65,8.65,0,0,0,1.19,1.45,4,4,0,0,1,1.3,2.63,2.81,2.81,0,0,1-1.06,2.17,3.93,3.93,0,0,1-2.71.93,3.19,3.19,0,0,1-2.08-.57,1.77,1.77,0,0,1-.68-1.4,1,1,0,0,1,.26-.68.83.83,0,0,1,.63-.27.8.8,0,0,1,.57.22.68.68,0,0,1,.23.51c0,.07,0,.18,0,.3v.26a.82.82,0,0,0,.32.65,1.29,1.29,0,0,0,.87.27,2.75,2.75,0,0,0,1.11-.21,1.59,1.59,0,0,0,.74-.66,1.64,1.64,0,0,0,.27-.87,1.6,1.6,0,0,0-.25-.84,10.84,10.84,0,0,0-1.13-1.4,4,4,0,0,1-1.22-2.61,2.64,2.64,0,0,1,.93-2A3.28,3.28,0,0,1,445.41,724.83Z" transform="translate(-41.01 -601.18)"/><path class="cls-1" d="M454.08,731.74l.39.52q-2.87,2.73-4.92,2.73a1.5,1.5,0,0,1-1.27-.57,2.87,2.87,0,0,1-.44-1.8,9.5,9.5,0,0,1,1.52-5c1.14-1.88,2.51-2.83,4.09-2.83a1.75,1.75,0,0,1,1.27.42,1.48,1.48,0,0,1,.44,1.14,2.5,2.5,0,0,1-.53,1.5,6.14,6.14,0,0,1-1.88,1.54c-.46.26-1.42.72-2.91,1.39a7.4,7.4,0,0,0-.1,1.21,1.89,1.89,0,0,0,.26,1.16.93.93,0,0,0,.77.33,2.48,2.48,0,0,0,1.05-.27A14.64,14.64,0,0,0,454.08,731.74ZM450,730a9.28,9.28,0,0,0,2.84-1.81,2,2,0,0,0,.64-1.35,1.12,1.12,0,0,0-.26-.8.89.89,0,0,0-.69-.3,1.36,1.36,0,0,0-.84.32,3.24,3.24,0,0,0-.93,1.32A11.85,11.85,0,0,0,450,730Z" transform="translate(-41.01 -601.18)"/><path class="cls-1" d="M456.45,727.58l-.4-.41a12.13,12.13,0,0,1,2.4-1.91,3.43,3.43,0,0,1,1.52-.47.67.67,0,0,1,.39.11.31.31,0,0,1,.14.24,2.1,2.1,0,0,1-.06.38l-.53,2.36a14.58,14.58,0,0,1,3-2.48,3.17,3.17,0,0,1,1.58-.6.89.89,0,0,1,.71.3,1.22,1.22,0,0,1,.26.84,3.71,3.71,0,0,1-.11.82c-.12.51-.45,1.61-1,3.32a13.73,13.73,0,0,0-.75,3.17.82.82,0,0,0,.07.36.23.23,0,0,0,.2.12c.23,0,.58-.22,1.07-.65s.69-.6,1-.87l.29.42a10.55,10.55,0,0,1-2.24,1.91,2.36,2.36,0,0,1-1.21.47.85.85,0,0,1-.7-.32,1.81,1.81,0,0,1-.24-1.05,25.2,25.2,0,0,1,1.3-5.19,12,12,0,0,0,.4-1.72c0-.25-.15-.37-.44-.37a2.37,2.37,0,0,0-1.2.5,7,7,0,0,0-1.84,1.71,5.37,5.37,0,0,0-.79,2l-.95,4.09h-1.74c.33-1.17.61-2.29.85-3.37l1-4.45a2.91,2.91,0,0,0,.05-.39c0-.21-.07-.32-.23-.32a1,1,0,0,0-.54.25A7.47,7.47,0,0,0,456.45,727.58Z" transform="translate(-41.01 -601.18)"/><path class="cls-1" d="M470.42,723l1.86-.71-.84,3.28h2.43l-.19.83h-2.43l-1,3.93a10.89,10.89,0,0,0-.49,2.46.62.62,0,0,0,.14.45.45.45,0,0,0,.36.15,2.62,2.62,0,0,0,1.12-.44,13.9,13.9,0,0,0,1.87-1.3l.45.54a29.63,29.63,0,0,1-3.44,2.37,3.29,3.29,0,0,1-1.39.43.82.82,0,0,1-.69-.32,1.71,1.71,0,0,1-.25-1,11.52,11.52,0,0,1,.45-2.58l1.19-4.66h-1.9l.21-.83h1.9Z" transform="translate(-41.01 -601.18)"/></svg>