<svg id="Layer_1" data-name="Layer 1" xmlns="http://www.w3.org/2000/svg" viewBox="0 0 328.21 79.82"><defs><style>.cls-1{fill:#0383c5;}</style></defs><title>NavBrand</title><path class="cls-1" d="M185.66,458.32,177,471l-15.17-.06V505l-12.41,14V470.9l-19.19.06,12.65-12.64Z" transform="translate(-94.79 -439.18)"/><polygon class="cls-1" points="51.4 62.69 51.4 79.83 17.13 45.56 11.42 51.27 11.42 62.69 0 62.69 0 17 11.42 17 11.42 34.13 37.18 8.38 29.47 0 45.69 0 45.69 17 25.7 36.99 51.4 62.69"/><path class="cls-1" d="M204,499.35H196l-5.21-4.94c-.89-.85-1.57-1.5-2-2s-.86-.86-1.15-1.18c0,.43,0,.88.05,1.34s0,.91,0,1.36v5.39h-5.36V480.56h5.36v4.36q0,.87,0,1.71c0,.56,0,1.09-.07,1.57.34-.33.76-.75,1.24-1.25s1.13-1.1,1.92-1.81l5-4.58h7.73l-6.59,5.4-1.51,1.23q-.66.54-1.17.93l-.94.7c-.28.21-.56.4-.84.59.5.37,1.1.84,1.8,1.4s1.62,1.34,2.73,2.33Z" transform="translate(-94.79 -439.18)"/><path class="cls-1" d="M213.06,499.35l3.22-4.83h5.94c.55,0,1,0,1.45.06-.24-.34-.52-.77-.84-1.28s-.62-1-.91-1.45l-3.09-5-8.09,12.47h-6.31l11-17a6.29,6.29,0,0,1,1.37-1.46,3.7,3.7,0,0,1,4.1,0,5.36,5.36,0,0,1,1.38,1.5l10.77,17Z" transform="translate(-94.79 -439.18)"/><path class="cls-1" d="M251,488.06a7.76,7.76,0,0,1,4.82,1.28,4.58,4.58,0,0,1,1.65,3.86,7.76,7.76,0,0,1-.41,2.58,4.67,4.67,0,0,1-1.32,1.94,6.2,6.2,0,0,1-2.3,1.21,11.85,11.85,0,0,1-3.36.42H234l3.43-4.83h13a2.42,2.42,0,0,0,1.39-.32,1.24,1.24,0,0,0,.44-1.06,1.2,1.2,0,0,0-.44-1,2.51,2.51,0,0,0-1.39-.31h-9.38a9.12,9.12,0,0,1-2.88-.39,5.53,5.53,0,0,1-2-1.09,4.41,4.41,0,0,1-1.19-1.7,6.25,6.25,0,0,1-.38-2.21A6.52,6.52,0,0,1,235,484a4.5,4.5,0,0,1,1.32-1.84,6.11,6.11,0,0,1,2.29-1.18,11.73,11.73,0,0,1,3.36-.43h15l-3.42,4.89h-12a2.64,2.64,0,0,0-1.38.28,1.1,1.1,0,0,0-.45,1,1.14,1.14,0,0,0,.45,1,2.63,2.63,0,0,0,1.38.29Z" transform="translate(-94.79 -439.18)"/><path class="cls-1" d="M282.55,487.61a6.91,6.91,0,0,1-.57,2.85,5.8,5.8,0,0,1-1.66,2.18,8.1,8.1,0,0,1-2.66,1.4,11.59,11.59,0,0,1-3.58.51h-9v4.8h-5.3v-9.6h14.83a2.84,2.84,0,0,0,1.92-.59,2,2,0,0,0,.68-1.58,1.9,1.9,0,0,0-.68-1.55,2.84,2.84,0,0,0-1.92-.58H259.76l3.52-4.89H274.1a11.28,11.28,0,0,1,3.58.53,7.72,7.72,0,0,1,2.66,1.44,6.07,6.07,0,0,1,1.64,2.22A7,7,0,0,1,282.55,487.61Z" transform="translate(-94.79 -439.18)"/><path class="cls-1" d="M305.27,494.52l-3.43,4.83H285.26V480.56h20l-3.45,4.89H290.61v2.25h13.65L301.2,492H290.61v2.56Z" transform="translate(-94.79 -439.18)"/><path class="cls-1" d="M331.54,499.35H324.4l-3.83-5h-8.19v5H307v-9.6h15a3.67,3.67,0,0,0,2.09-.57,1.73,1.73,0,0,0,.85-1.54,1.88,1.88,0,0,0-.77-1.64,3.69,3.69,0,0,0-2.17-.55H307l3.48-4.89H321.6a16.22,16.22,0,0,1,3,.3,9.07,9.07,0,0,1,2.86,1.05,6.48,6.48,0,0,1,2.12,2,6,6,0,0,1,.84,3.32,7,7,0,0,1-.31,2.07,5.89,5.89,0,0,1-.89,1.77,5.3,5.3,0,0,1-1.42,1.33,5.39,5.39,0,0,1-1.89.78,12.78,12.78,0,0,1,1,.92c.36.38.84.89,1.44,1.55Z" transform="translate(-94.79 -439.18)"/><path class="cls-1" d="M354.85,480.56l-3.45,4.89h-6.16v13.9h-5.33v-13.9h-8.09l3.45-4.89Z" transform="translate(-94.79 -439.18)"/><path class="cls-1" d="M376.48,494.52l-3.42,4.83H356.47V480.56h20L373,485.45H361.83v2.25h13.65L372.41,492H361.83v2.56Z" transform="translate(-94.79 -439.18)"/><path class="cls-1" d="M400.23,494.52l-3.42,4.83h-8.66a11.71,11.71,0,0,1-4.15-.73,10.16,10.16,0,0,1-3.28-2,9.24,9.24,0,0,1-3-6.84,8.71,8.71,0,0,1,.79-3.74,8.59,8.59,0,0,1,2.16-2.92,9.73,9.73,0,0,1,3.28-1.89,12.94,12.94,0,0,1,4.15-.66h12.08l-3.42,4.89h-8.66a5.73,5.73,0,0,0-2,.34,4.5,4.5,0,0,0-1.59.94,4.35,4.35,0,0,0-1.06,1.44,4.4,4.4,0,0,0-.39,1.86,4.45,4.45,0,0,0,.38,1.84,4.07,4.07,0,0,0,1,1.41,4.91,4.91,0,0,0,1.61.92,6.23,6.23,0,0,0,2,.32Z" transform="translate(-94.79 -439.18)"/><path class="cls-1" d="M423,499.35h-5.31V492.1H407.44v7.25h-5.35V480.56h5.35v6.66h10.25v-6.66H423Z" transform="translate(-94.79 -439.18)"/></svg>